# xmcd
#
# Track frame offsets:
#	150
#	16326
#	37479
#	58391
#	82375
#	99494
#	117461
#	134807
#	156405
#	180089
#	197484
#	213821
#	230062
#	256655
#	273012
#	289653
#	304554
#	321859
#	338394
#
# Disc length: 4711 seconds
#
# Revision: 1
# Processed by: cddbd v1.4PL0 Copyright (c) Steve Scherf et al.
# Submitted via: audiograbber 1.81.03
#
DISCID=14126513
DTITLE=Memphis - Greatest Hits
DYEAR=2001
DGENRE=Blues
TTITLE0=Blues De Las 6 Y 30
TTITLE1=Moscato, Pizza Y Faina
TTITLE2=La Bifurcada
TTITLE3=Ya No Me Toques
TTITLE4=Hechicero De La Jungla
TTITLE5=No Se Detiene
TTITLE6=Quiero Vivir En Un Lugar
TTITLE7=Sopa de Letras
TTITLE8=Monton de Nada
TTITLE9=Locura
TTITLE10=Como Una Mosca
TTITLE11=La Flor Mas Bella
TTITLE12=Cosas De Hombres
TTITLE13=Caliente
TTITLE14=La Ultima Lagrima
TTITLE15=Vuelvo A Casa Mama
TTITLE16=Adiccion
TTITLE17=Angelitos Culones
TTITLE18=Irresponsable
EXTD=
EXTT0=
EXTT1=
EXTT2=
EXTT3=
EXTT4=
EXTT5=
EXTT6=
EXTT7=
EXTT8=
EXTT9=
EXTT10=
EXTT11=
EXTT12=
EXTT13=
EXTT14=
EXTT15=
EXTT16=
EXTT17=
EXTT18=
PLAYORDER=
